<svg id="instagram" xmlns="http://www.w3.org/2000/svg" width="49.652" height="49.652" viewBox="0 0 49.652 49.652">
  <path id="Trazado_7" data-name="Trazado 7" d="M216.5,211.752A4.752,4.752,0,1,1,211.752,207,4.752,4.752,0,0,1,216.5,211.752Zm0,0" transform="translate(-186.926 -186.926)" fill="#575757"/>
  <path id="Trazado_8" data-name="Trazado 8" d="M158.284,138.768a4.721,4.721,0,0,0-2.705-2.705,7.888,7.888,0,0,0-2.647-.491c-1.5-.069-1.954-.083-5.761-.083s-4.258.014-5.761.083a7.892,7.892,0,0,0-2.647.491,4.723,4.723,0,0,0-2.706,2.705,7.89,7.89,0,0,0-.491,2.647c-.069,1.5-.083,1.954-.083,5.761s.015,4.257.083,5.761a7.887,7.887,0,0,0,.491,2.647,4.721,4.721,0,0,0,2.706,2.705,7.877,7.877,0,0,0,2.647.491c1.5.069,1.954.083,5.76.083s4.258-.014,5.761-.083a7.877,7.877,0,0,0,2.647-.491,4.721,4.721,0,0,0,2.705-2.705,7.9,7.9,0,0,0,.491-2.647c.069-1.5.083-1.954.083-5.761s-.014-4.257-.083-5.761A7.878,7.878,0,0,0,158.284,138.768ZM147.172,154.5a7.32,7.32,0,1,1,7.32-7.32A7.32,7.32,0,0,1,147.172,154.5Zm7.61-13.219a1.711,1.711,0,1,1,1.711-1.711A1.711,1.711,0,0,1,154.781,141.276Zm0,0" transform="translate(-122.346 -122.349)" fill="#575757"/>
  <path id="Trazado_9" data-name="Trazado 9" d="M24.826,0A24.826,24.826,0,1,0,49.652,24.826,24.829,24.829,0,0,0,24.826,0ZM39,30.7a10.459,10.459,0,0,1-.663,3.46,7.289,7.289,0,0,1-4.169,4.169A10.466,10.466,0,0,1,30.7,39c-1.52.069-2.006.086-5.877.086s-4.357-.017-5.878-.086a10.466,10.466,0,0,1-3.46-.663,7.289,7.289,0,0,1-4.169-4.169,10.456,10.456,0,0,1-.663-3.46c-.07-1.521-.086-2.006-.086-5.878s.016-4.357.086-5.877a10.46,10.46,0,0,1,.662-3.46,7.294,7.294,0,0,1,4.17-4.169,10.469,10.469,0,0,1,3.46-.663c1.52-.069,2.006-.086,5.877-.086s4.357.017,5.877.086a10.471,10.471,0,0,1,3.46.662,7.291,7.291,0,0,1,4.169,4.17A10.458,10.458,0,0,1,39,18.949c.069,1.52.086,2.006.086,5.877S39.065,29.183,39,30.7Zm0,0" fill="#575757"/>
</svg>
