<svg id="levels" xmlns="http://www.w3.org/2000/svg" width="38.008" height="29.37" viewBox="0 0 38.008 29.37">
  <g id="Grupo_12" data-name="Grupo 12" transform="translate(0 0)">
    <path id="Trazado_21" data-name="Trazado 21" d="M37.145,17.094H32.825a.864.864,0,0,0-.864.864v6.911a.864.864,0,1,1-1.728,0V7.591a2.591,2.591,0,1,0-5.183,0V31.779a.864.864,0,0,1-1.728,0v-21.6a2.591,2.591,0,1,0-5.183,0V22.277a.864.864,0,0,1-1.728,0V7.591a2.591,2.591,0,1,0-5.183,0V28.323a.864.864,0,0,1-1.728,0V14.5a2.591,2.591,0,1,0-5.183,0v2.591H.864a.864.864,0,0,0,0,1.728H5.183a.864.864,0,0,0,.864-.864V14.5a.864.864,0,0,1,1.728,0V28.323a2.591,2.591,0,1,0,5.183,0V7.591a.864.864,0,1,1,1.728,0V22.277a2.591,2.591,0,0,0,5.183,0V10.183a.864.864,0,0,1,1.728,0v21.6a2.591,2.591,0,0,0,5.183,0V7.591a.864.864,0,1,1,1.728,0V24.868a2.591,2.591,0,1,0,5.183,0V18.821h3.455a.864.864,0,1,0,0-1.728Z" transform="translate(0 -5)" fill="#fff"/>
  </g>
</svg>
