<svg xmlns="http://www.w3.org/2000/svg" width="27.501" height="30" viewBox="0 0 27.501 30">
  <g id="trash" transform="translate(-18.269)">
    <g id="Grupo_45" data-name="Grupo 45" transform="translate(18.269)">
      <path id="Trazado_52" data-name="Trazado 52" d="M45.594,5.176A.609.609,0,0,0,45.145,5H39.109L37.742,1.738A2.707,2.707,0,0,0,36.688.508,2.759,2.759,0,0,0,35.144,0h-6.25a2.758,2.758,0,0,0-1.543.508A2.706,2.706,0,0,0,26.3,1.738L24.929,5H18.894a.6.6,0,0,0-.625.625v1.25a.6.6,0,0,0,.625.625h1.875V26.094a4.273,4.273,0,0,0,.918,2.764A2.75,2.75,0,0,0,23.894,30h16.25a2.723,2.723,0,0,0,2.207-1.181,4.435,4.435,0,0,0,.918-2.8V7.5h1.875a.6.6,0,0,0,.625-.625V5.625A.609.609,0,0,0,45.594,5.176ZM28.6,2.714a.55.55,0,0,1,.332-.215h6.191a.552.552,0,0,1,.332.215L36.395,5h-8.75Zm12.168,23.3a2.213,2.213,0,0,1-.137.791,1.761,1.761,0,0,1-.283.527c-.1.111-.166.166-.205.166H23.894c-.039,0-.107-.055-.2-.166a1.752,1.752,0,0,1-.283-.527,2.22,2.22,0,0,1-.137-.791V7.5h17.5V26.016Z" transform="translate(-18.269)" fill="#dd141d"/>
      <path id="Trazado_53" data-name="Trazado 53" d="M128.519,176.723h1.227a.59.59,0,0,0,.614-.614V165.062a.59.59,0,0,0-.614-.613h-1.227a.59.59,0,0,0-.614.613v11.047a.59.59,0,0,0,.614.614Z" transform="translate(-120.391 -153.053)" fill="#dd141d"/>
      <path id="Trazado_54" data-name="Trazado 54" d="M201.608,176.723h1.227a.59.59,0,0,0,.613-.614V165.062a.59.59,0,0,0-.613-.613h-1.227a.59.59,0,0,0-.614.613v11.047a.59.59,0,0,0,.614.614Z" transform="translate(-188.471 -153.053)" fill="#dd141d"/>
      <path id="Trazado_55" data-name="Trazado 55" d="M274.7,176.723h1.227a.59.59,0,0,0,.613-.614V165.062a.59.59,0,0,0-.613-.613H274.7a.59.59,0,0,0-.614.613v11.047a.59.59,0,0,0,.614.614Z" transform="translate(-256.551 -153.053)" fill="#dd141d"/>
    </g>
  </g>
</svg>
