<svg xmlns="http://www.w3.org/2000/svg" width="49.652" height="49.652" viewBox="0 0 49.652 49.652">
  <g id="youtube" transform="translate(0)">
    <path id="Trazado_11" data-name="Trazado 11" d="M224.113,217.341l8.076-4.651-8.076-4.651Zm0,0" transform="translate(-202.38 -187.864)" fill="#575757"/>
    <path id="Trazado_12" data-name="Trazado 12" d="M24.826,0A24.826,24.826,0,1,0,49.652,24.826,24.829,24.829,0,0,0,24.826,0ZM40.338,24.851a40.974,40.974,0,0,1-.639,7.463,3.887,3.887,0,0,1-2.735,2.734c-2.428.639-12.139.639-12.139.639s-9.686,0-12.139-.664a3.888,3.888,0,0,1-2.735-2.735,40.8,40.8,0,0,1-.639-7.462,40.948,40.948,0,0,1,.639-7.462,3.966,3.966,0,0,1,2.735-2.76c2.428-.639,12.139-.639,12.139-.639s9.711,0,12.139.664A3.888,3.888,0,0,1,39.7,17.364,38.884,38.884,0,0,1,40.338,24.851Zm0,0" fill="#575757"/>
  </g>
</svg>
