<svg id="shopping-cart" xmlns="http://www.w3.org/2000/svg" width="25.762" height="22.642" viewBox="0 0 25.762 22.642">
  <path id="Trazado_29" data-name="Trazado 29" d="M8.3,15.095H21.988a.755.755,0,0,0,.726-.547L25.733,3.981a.755.755,0,0,0-.726-.962H6.56L6.02.591A.755.755,0,0,0,5.283,0H.755a.755.755,0,0,0,0,1.509H4.678L7.4,13.772a2.264,2.264,0,0,0,.9,4.342H21.988a.755.755,0,0,0,0-1.509H8.3a.755.755,0,0,1,0-1.509ZM24.006,4.528l-2.588,9.057H8.907L6.895,4.528Zm0,0"/>
  <path id="Trazado_30" data-name="Trazado 30" d="M150,362.264A2.264,2.264,0,1,0,152.264,360,2.267,2.267,0,0,0,150,362.264Zm2.264-.755a.755.755,0,1,1-.755.755A.756.756,0,0,1,152.264,361.509Zm0,0" transform="translate(-142.453 -341.886)"/>
  <path id="Trazado_31" data-name="Trazado 31" d="M362,362.264A2.264,2.264,0,1,0,364.264,360,2.267,2.267,0,0,0,362,362.264Zm2.264-.755a.755.755,0,1,1-.755.755A.756.756,0,0,1,364.264,361.509Zm0,0" transform="translate(-343.786 -341.886)"/>
</svg>
