<svg id="battery" xmlns="http://www.w3.org/2000/svg" width="38.008" height="19.756" viewBox="0 0 38.008 19.756">
  <g id="Grupo_11" data-name="Grupo 11">
    <path id="Trazado_20" data-name="Trazado 20" d="M36.35,128.39H34.4v-2.971a2.491,2.491,0,0,0-2.488-2.488H2.488A2.491,2.491,0,0,0,0,125.419V140.2a2.491,2.491,0,0,0,2.488,2.488H31.915A2.491,2.491,0,0,0,34.4,140.2v-2.971H36.35a1.66,1.66,0,0,0,1.659-1.659v-5.521A1.661,1.661,0,0,0,36.35,128.39ZM26.186,141.028H2.488a.83.83,0,0,1-.829-.829v-14.78a.83.83,0,0,1,.829-.829h23.7v16.439Zm5.729,0h-4.07V124.59h4.07a.83.83,0,0,1,.829.829V140.2h0A.83.83,0,0,1,31.915,141.028Zm4.435-5.459H34.4v-5.521H36.35v5.521Z" transform="translate(0 -122.931)" fill="#fff"/>
  </g>
</svg>
