<svg xmlns="http://www.w3.org/2000/svg" width="56" height="53.651" viewBox="0 0 56 53.651">
  <path id="star" d="M54.784,25.361a4.016,4.016,0,0,0-2.227-6.85L39,16.54a1.771,1.771,0,0,1-1.334-.97L31.6,3.285a4.016,4.016,0,0,0-7.2,0L18.336,15.572a1.773,1.773,0,0,1-1.336.97L3.441,18.512a4.016,4.016,0,0,0-2.227,6.85l9.811,9.563a1.775,1.775,0,0,1,.511,1.57L9.222,50a3.932,3.932,0,0,0,.876,3.256,4.058,4.058,0,0,0,4.951.977l12.126-6.376a1.815,1.815,0,0,1,1.651,0l12.127,6.376a3.974,3.974,0,0,0,1.868.468A4.027,4.027,0,0,0,45.9,53.254,3.93,3.93,0,0,0,46.778,50l-2.316-13.5a1.774,1.774,0,0,1,.511-1.57Z" transform="translate(0.001 -1.047)" fill="#ffc60b"/>
</svg>
