<svg xmlns="http://www.w3.org/2000/svg" width="39.517" height="38.008" viewBox="0 0 39.517 38.008">
  <g id="art-and-design" transform="translate(0 0)">
    <path id="Trazado_13" data-name="Trazado 13" d="M35.844,141.012l.166,0a3.4,3.4,0,0,0,3.047-1.681,3.272,3.272,0,0,0-.03-3.393,21.228,21.228,0,0,0-18.214-9.8A21.728,21.728,0,0,0,6.13,131.674a17.865,17.865,0,0,0,0,26.941,21.727,21.727,0,0,0,14.684,5.534,21.228,21.228,0,0,0,18.214-9.8,3.272,3.272,0,0,0,.03-3.393,3.4,3.4,0,0,0-3.047-1.681l-.167,0a4.161,4.161,0,1,1,0-8.265Zm0,10.235c.076,0,.152,0,.228,0a1.414,1.414,0,0,1,1.284.7,1.319,1.319,0,0,1-.012,1.377,19.249,19.249,0,0,1-16.53,8.853c-10.39,0-18.844-7.641-18.844-17.034s8.453-17.034,18.844-17.034a19.249,19.249,0,0,1,16.53,8.853,1.319,1.319,0,0,1,.012,1.377,1.414,1.414,0,0,1-1.284.7q-.113,0-.227,0a6.123,6.123,0,1,0,0,12.205Zm0,0" transform="translate(0 -126.141)" fill="#fff"/>
    <path id="Trazado_14" data-name="Trazado 14" d="M54.355,275.172a3.628,3.628,0,1,0,3.628,3.628A3.632,3.632,0,0,0,54.355,275.172Zm0,5.6a1.973,1.973,0,1,1,1.972-1.973A1.975,1.975,0,0,1,54.355,280.773Zm0,0" transform="translate(-46.526 -259.796)" fill="#fff"/>
    <path id="Trazado_15" data-name="Trazado 15" d="M126.683,188.78a3.628,3.628,0,1,0-3.628-3.628A3.632,3.632,0,0,0,126.683,188.78Zm0-5.6a1.973,1.973,0,1,1-1.973,1.973A1.975,1.975,0,0,1,126.683,183.179Zm0,0" transform="translate(-110.388 -176.937)" fill="#fff"/>
    <path id="Trazado_16" data-name="Trazado 16" d="M237.306,190.969a3.072,3.072,0,1,0,3.072,3.072A3.075,3.075,0,0,0,237.306,190.969Zm0,4.488a1.416,1.416,0,1,1,1.416-1.416A1.418,1.418,0,0,1,237.306,195.457Zm0,0" transform="translate(-210.317 -184.337)" fill="#fff"/>
    <path id="Trazado_17" data-name="Trazado 17" d="M130.936,358.816a4.042,4.042,0,1,0,4.041,4.042A4.046,4.046,0,0,0,130.936,358.816Zm0,6.428a2.386,2.386,0,1,1,2.386-2.386A2.389,2.389,0,0,1,130.936,365.244Zm0,0" transform="translate(-113.748 -333.479)" fill="#fff"/>
  </g>
</svg>
