<svg id="microphone" xmlns="http://www.w3.org/2000/svg" width="20.012" height="38.009" viewBox="0 0 20.012 38.009">
  <path id="Trazado_27" data-name="Trazado 27" d="M32.387,28a.633.633,0,0,0-.625.642v3.85a8.881,8.881,0,0,1-8.755,8.983,8.881,8.881,0,0,1-8.755-8.983v-3.85a.626.626,0,1,0-1.251,0v3.85a10.162,10.162,0,0,0,9.381,10.234v3.241H19.254a.642.642,0,0,0,0,1.283h7.5a.642.642,0,0,0,0-1.283H23.631V42.725a10.163,10.163,0,0,0,9.381-10.234v-3.85A.634.634,0,0,0,32.387,28Z" transform="translate(-13 -9.241)" fill="#fff"/>
  <path id="Trazado_28" data-name="Trazado 28" d="M24.8,29.516a6.94,6.94,0,0,0,6.8-7.058V7.058A6.94,6.94,0,0,0,24.8,0,6.94,6.94,0,0,0,18,7.058v15.4A6.94,6.94,0,0,0,24.8,29.516Z" transform="translate(-14.792 0)" fill="#fff"/>
</svg>
