<svg xmlns="http://www.w3.org/2000/svg" width="36.923" height="38.008" viewBox="0 0 36.923 38.008">
  <g id="settings" transform="translate(0 0)">
    <g id="Grupo_14" data-name="Grupo 14" transform="translate(0)">
      <path id="Trazado_24" data-name="Trazado 24" d="M178.66,18.525V1.068a1.072,1.072,0,0,0-2.143,0V18.525a5.421,5.421,0,0,0,0,10.636v7.771a1.072,1.072,0,0,0,2.143,0V29.161a5.421,5.421,0,0,0,0-10.636Zm-1.072,8.6a3.284,3.284,0,1,1,3.295-3.284A3.291,3.291,0,0,1,177.588,27.127Z" transform="translate(-159.087)" fill="#fff"/>
      <path id="Trazado_25" data-name="Trazado 25" d="M13.36,9.567v-8.5a1.072,1.072,0,0,0-2.144,0v8.5a5.421,5.421,0,0,0,0,10.636V36.932a1.072,1.072,0,0,0,2.144,0V20.195a5.417,5.417,0,0,0,0-10.628Zm-1.072,8.6a3.284,3.284,0,1,1,3.295-3.284A3.291,3.291,0,0,1,12.288,18.169Z" transform="translate(-6.85)" fill="#fff"/>
      <path id="Trazado_26" data-name="Trazado 26" d="M342.96,9.567v-8.5a1.072,1.072,0,0,0-2.143,0v8.5a5.421,5.421,0,0,0,0,10.636V36.94a1.072,1.072,0,0,0,2.143,0V20.2a5.417,5.417,0,0,0,0-10.628Zm-1.072,8.6a3.284,3.284,0,1,1,3.295-3.284A3.291,3.291,0,0,1,341.888,18.169Z" transform="translate(-310.403)" fill="#fff"/>
    </g>
  </g>
</svg>
